<svg width="51" height="51" viewBox="0 0 51 51" fill="none" xmlns="http://www.w3.org/2000/svg">
<path fill-rule="evenodd" clip-rule="evenodd" d="M25.8282 50.9998L43.2993 43.763L27.2465 29.716L25.8282 50.9998ZM43.763 43.2997L50.9999 25.8284L29.7158 27.2467L43.763 43.2997ZM51.0004 25.1729L43.7633 7.70124L29.7158 23.7546L51.0004 25.1729ZM43.3002 7.23748L25.8282 0.000317846L27.2465 21.2853L43.3002 7.23748ZM25.1728 0.000183105L7.70062 7.23739L23.7544 21.2853L25.1728 0.000183105ZM7.23736 7.701L0.000244141 25.1729L21.2851 23.7546L7.23736 7.701ZM0.000733418 25.8284L7.23769 43.2999L21.2851 27.2467L0.000733418 25.8284ZM7.70151 43.7631L23.7544 29.716L25.1727 50.9999L7.70151 43.7631Z" fill="#0F2A71"/>
</svg>
