<svg width="195" height="48" fill="none" xmlns="http://www.w3.org/2000/svg"><path d="M62.391 34.18h1.278l2.138 5.886 2.132-5.886h1.284L66.317 42h-1.025l-2.9-7.82Zm-.644 0h1.251l.226 5.408V42h-1.477v-7.82Zm6.864 0h1.257V42H68.39v-2.412l.22-5.408Zm16.244 6.66V42h-4.157v-1.16h4.157Zm-3.706-6.66V42h-1.477v-7.82h1.477Zm3.163 3.228v1.133h-3.614v-1.133h3.614Zm.527-3.228v1.165h-4.141V34.18h4.14Zm13.434 5.79c0-.15-.023-.285-.07-.403a.745.745 0 0 0-.241-.328 1.928 1.928 0 0 0-.489-.29 6.81 6.81 0 0 0-.806-.3 8.899 8.899 0 0 1-1.02-.387 4.006 4.006 0 0 1-.833-.5 2.128 2.128 0 0 1-.553-.655 1.834 1.834 0 0 1-.199-.87c0-.322.068-.616.204-.881.14-.265.337-.492.591-.682a2.81 2.81 0 0 1 .897-.446c.348-.104.73-.156 1.15-.156.58 0 1.081.106 1.504.317.426.211.755.498.988.86.233.361.349.768.349 1.219h-1.472c0-.244-.052-.459-.155-.645a1.06 1.06 0 0 0-.462-.44c-.204-.108-.462-.161-.774-.161-.3 0-.551.044-.752.134-.197.09-.345.211-.445.365a.95.95 0 0 0-.145.516c0 .143.033.272.101.386.069.111.17.217.307.317.136.097.304.188.505.274.204.083.44.165.709.247.43.13.805.273 1.127.43.326.158.597.337.811.537.219.2.382.426.49.677.11.25.166.535.166.854 0 .337-.067.637-.199.902a1.91 1.91 0 0 1-.57.677 2.643 2.643 0 0 1-.89.424 4.263 4.263 0 0 1-1.156.145c-.38 0-.755-.05-1.128-.15a3.43 3.43 0 0 1-1.004-.462c-.3-.208-.54-.469-.72-.784-.179-.319-.268-.691-.268-1.117h1.482c0 .247.04.458.118.633.083.172.197.314.344.425.15.107.326.186.526.236.2.05.418.075.65.075.301 0 .548-.04.742-.123a.96.96 0 0 0 .44-.355c.1-.15.15-.322.15-.515Zm15.014 0c0-.15-.023-.285-.07-.403a.744.744 0 0 0-.241-.328 1.943 1.943 0 0 0-.489-.29 6.806 6.806 0 0 0-.806-.3 8.904 8.904 0 0 1-1.02-.387 4.015 4.015 0 0 1-.833-.5 2.126 2.126 0 0 1-.553-.655 1.84 1.84 0 0 1-.199-.87 1.9 1.9 0 0 1 .204-.881 2.03 2.03 0 0 1 .591-.682c.254-.194.553-.342.897-.446a4.005 4.005 0 0 1 1.15-.156c.58 0 1.081.106 1.503.317.427.211.756.498.989.86.233.361.349.768.349 1.219h-1.472a1.3 1.3 0 0 0-.156-.645 1.059 1.059 0 0 0-.461-.44c-.205-.108-.462-.161-.774-.161-.301 0-.551.044-.752.134a1.02 1.02 0 0 0-.446.365.956.956 0 0 0-.145.516c0 .143.034.272.102.386.068.111.17.217.307.317.136.097.304.188.504.274.205.083.441.165.709.247.43.13.806.273 1.128.43.326.158.597.337.811.537.219.2.382.426.489.677.111.25.167.535.167.854 0 .337-.067.637-.199.902-.133.265-.322.49-.569.677a2.656 2.656 0 0 1-.892.424 4.266 4.266 0 0 1-1.155.145c-.379 0-.755-.05-1.128-.15a3.428 3.428 0 0 1-1.004-.462 2.355 2.355 0 0 1-.72-.784c-.179-.319-.268-.691-.268-1.117h1.482c0 .247.039.458.118.633.083.172.197.314.344.425.15.107.326.186.526.236.201.05.417.075.65.075.301 0 .548-.04.741-.123a.964.964 0 0 0 .441-.355.91.91 0 0 0 .15-.515Zm16.104.87V42h-4.157v-1.16h4.157Zm-3.706-6.66V42h-1.477v-7.82h1.477Zm3.164 3.228v1.133h-3.615v-1.133h3.615Zm.526-3.228v1.165h-4.141V34.18h4.141Zm15.626 0V42h-1.482l-3.325-5.425V42h-1.477v-7.82h1.477l3.336 5.43v-5.43h1.471Zm15.906 3.776V41a2.503 2.503 0 0 1-.543.478c-.243.172-.562.32-.956.446-.393.122-.877.182-1.45.182a3.64 3.64 0 0 1-1.364-.247 2.949 2.949 0 0 1-1.064-.736 3.318 3.318 0 0 1-.687-1.181c-.161-.466-.242-.997-.242-1.595v-.516c0-.598.075-1.13.226-1.595.154-.466.372-.86.655-1.182a2.843 2.843 0 0 1 1.026-.736 3.44 3.44 0 0 1 1.343-.252c.662 0 1.206.11 1.633.328.429.218.759.519.988.902.229.38.372.816.43 1.31h-1.44a1.973 1.973 0 0 0-.236-.714 1.22 1.22 0 0 0-.505-.483c-.215-.118-.494-.178-.838-.178-.29 0-.546.058-.768.172a1.525 1.525 0 0 0-.559.5c-.15.218-.265.489-.343.81a4.848 4.848 0 0 0-.113 1.107v.527c0 .419.043.791.129 1.117.086.322.209.594.37.816.165.219.367.385.607.5.244.11.519.166.827.166.28 0 .511-.023.693-.07.186-.05.335-.109.446-.177.111-.068.197-.134.258-.199v-1.466h-1.552v-1.08h3.029Zm14.88 2.884V42h-4.158v-1.16h4.158Zm-3.707-6.66V42h-1.477v-7.82h1.477Zm3.164 3.228v1.133h-3.615v-1.133h3.615Zm.526-3.228v1.165h-4.141V34.18h4.141Zm9.342 0h2.842c.594 0 1.104.09 1.53.268.427.18.754.444.983.795.23.351.344.783.344 1.295 0 .404-.071.755-.215 1.052a2.041 2.041 0 0 1-.607.747c-.257.2-.562.358-.913.473l-.462.236h-2.508l-.011-1.166h1.875c.304 0 .557-.053.757-.16.201-.108.351-.257.451-.447a1.33 1.33 0 0 0 .156-.65c0-.26-.05-.486-.15-.676a1.024 1.024 0 0 0-.457-.446c-.204-.104-.462-.156-.773-.156h-1.365V42h-1.477v-7.82Zm4.415 7.82-1.81-3.502 1.563-.005 1.832 3.432V42h-1.585Z" fill="#0F2A71"/><path fill-rule="evenodd" clip-rule="evenodd" d="m24.309 48 16.443-6.811-15.108-13.221L24.309 48Zm16.88-7.248 6.81-16.443-20.031 1.335 13.22 15.108ZM48 23.692 41.189 7.248l-13.221 15.11L48 23.691Zm-7.247-16.88L24.309 0l1.335 20.033L40.753 6.812ZM23.692 0 7.247 6.81l15.11 13.222L23.692 0ZM6.812 7.248 0 23.692l20.033-1.335L6.81 7.247ZM0 24.309l6.812 16.444 13.22-15.11L0 24.31Zm7.248 16.88 15.109-13.221L23.692 48 7.248 41.189ZM143.667 10v13.333L143.665 26l18.002-2.483V26h2.666V10h-2.666v10.85l-15.333 2.115V10h-2.667Zm-40.668 16V10h20.667v2.667l-9.578 5.866L123.666 22v4h-2.667v-2.23l-9.717-3.518-5.616 3.44V26h-2.667Zm2.667-5.434 12.897-7.9h-12.897v7.9ZM91.666 10v16h2.667V10h-2.667Zm40.666 0v16h2.667V10h-2.667Zm42.335 0H195v2.667h-13.556L195 18v8h-22v-2.667h19.333v-3.182L173 12.667V10h1.667Zm-112 0H61v2.667l19.333 7.484v3.182H61V26h22v-8l-13.555-5.333H83V10H62.667Z" fill="#0D2668"/></svg>